<svg width="32" height="32" viewBox="0 0 32 32" fill="none" xmlns="http://www.w3.org/2000/svg">
    <circle cx="16" cy="16" r="16" fill="url(#paint0_linear_852_5648)"/>
    <mask id="mask0_852_5648" style="mask-type:alpha" maskUnits="userSpaceOnUse" x="0" y="0" width="32" height="32">
        <circle cx="16" cy="16" r="16" fill="url(#paint1_linear_852_5648)"/>
    </mask>
    <g mask="url(#mask0_852_5648)">
        <path opacity="0.4" d="M25.9759 12.9393C12.7842 15.1848 8.37458 27.5717 7.81872 33.4844C13.7428 30.5975 17.4768 29.1068 22.4837 28.1583C27.4906 27.2097 32.7448 28.3533 39.6678 25.8305C54.1246 20.5625 52.4768 6.21703 50.8893 3.74382C47.0561 9.29996 42.4654 10.1324 25.9759 12.9393Z" fill="url(#paint2_linear_852_5648)"/>
        <path opacity="0.4" d="M10.1797 -1.47084C-2.21998 0.639891 -6.36489 12.2831 -6.88738 17.8409C-3.37536 12.7371 1.64428 7.20504 6.35059 6.31343C11.0569 5.42182 14.0248 6.17216 20.4394 3.56044C30.6823 -0.609945 35.0897 -7.78953 33.5975 -10.1143C29.9944 -4.89168 25.6794 -4.10925 10.1797 -1.47084Z" fill="url(#paint3_linear_852_5648)"/>
        <path opacity="0.2" d="M-14.7654 20.0495C7.27656 28.2087 32.6932 20.5331 47.1785 0.503189C16.7119 -7.57913 -3.38711 5.3934 -14.7654 20.0495Z" fill="url(#paint4_linear_852_5648)"/>
    </g>
    <path d="M16.6857 9.14404C12.7679 9.81413 11.4582 13.5105 11.2931 15.2749C13.0525 14.4134 14.1615 13.9686 15.6486 13.6855C17.1356 13.4025 18.6961 13.7437 20.7522 12.9909C25.0459 11.4189 24.5565 7.13806 24.085 6.40002C22.9465 8.05803 21.5831 8.30643 16.6857 9.14404Z" fill="white"/>
    <path d="M16.6857 9.14404C12.7679 9.81413 11.4582 13.5105 11.2931 15.2749C13.0525 14.4134 14.1615 13.9686 15.6486 13.6855C17.1356 13.4025 18.6961 13.7437 20.7522 12.9909C25.0459 11.4189 24.5565 7.13806 24.085 6.40002C22.9465 8.05803 21.5831 8.30643 16.6857 9.14404Z" fill="white"/>
    <path d="M16.6857 9.14404C12.7679 9.81413 11.4582 13.5105 11.2931 15.2749C12.4028 13.6546 13.9888 11.8984 15.4759 11.6153C16.9629 11.3322 17.9007 11.5705 19.9275 10.7413C23.1639 9.41735 24.5565 7.13806 24.085 6.40002C22.9465 8.05803 21.5831 8.30643 16.6857 9.14404Z" fill="white"/>
    <path d="M16.3198 14.9031C8.80741 15.8009 10.2288 23.1961 10.0039 25.6C11.4646 23.591 11.2282 21.6465 14.0682 20.0955C16.1693 18.9481 17.8313 19.5801 20.4891 18.8349C25.9814 17.295 25.48 12.5021 24.8977 11.1257C23.2375 13.0639 23.3115 14.6497 16.3198 14.9031Z" fill="white"/>
    <path d="M16.3199 14.9031C11.1831 15.4624 10.3893 19.1967 10.1487 21.1725C10.4186 20.9226 10.7264 19.4042 14.0793 19.0649C15.2509 18.9463 18.6232 19.4587 20.4892 18.8349C25.9814 17.295 25.48 12.5021 24.8978 11.1257C23.2376 13.0639 23.3116 14.6497 16.3199 14.9031Z" fill="white"/>
    <path d="M16.3199 14.9031C11.1831 15.4624 10.3893 19.1967 10.1487 21.1725C10.93 20.0636 10.972 19.2985 13.9877 17.9279C15.4702 17.1925 18.0314 17.5334 19.8974 16.9096C25.3897 15.3697 25.48 12.5021 24.8978 11.1257C23.2376 13.0639 23.3116 14.6497 16.3199 14.9031Z" fill="white"/>
    <path d="M10.4508 19.5824C12.9929 19.458 15.1983 17.605 15.7901 14.9822C12.4122 15.4738 10.9615 17.63 10.4508 19.5824Z" fill="white"/>
    <path d="M10.6153 12.9547C11.0408 11.1284 11.6632 10.251 13.1869 9.0205C11.1357 7.15231 8.48293 7.7957 6.93335 8.93304C8.28238 9.59237 9.58182 10.433 10.6153 12.9547Z" fill="white"/>
    <path d="M11.2932 15.2818C11.6198 12.2485 13.5807 10.4052 14.5743 9.96838C15.4012 10.9756 15.897 12.2581 15.9128 13.6379C14.4375 13.8048 12.2098 14.8105 11.2932 15.2818Z" fill="white"/>
    <defs>
        <linearGradient id="paint0_linear_852_5648" x1="16" y1="0" x2="16" y2="32" gradientUnits="userSpaceOnUse">
            <stop stop-color="#EFA84F"/>
            <stop offset="1" stop-color="#EA3223"/>
        </linearGradient>
        <linearGradient id="paint1_linear_852_5648" x1="16" y1="0" x2="16" y2="32" gradientUnits="userSpaceOnUse">
            <stop stop-color="#EFA84F"/>
            <stop offset="1" stop-color="#EA3223"/>
        </linearGradient>
        <linearGradient id="paint2_linear_852_5648" x1="51.4799" y1="4.29649" x2="7.82028" y2="33.0296" gradientUnits="userSpaceOnUse">
            <stop offset="0.125" stop-color="#F70000"/>
            <stop offset="0.692708" stop-color="#FF7A00"/>
        </linearGradient>
        <linearGradient id="paint3_linear_852_5648" x1="9.04321" y1="10.2519" x2="-4.20064" y2="-12.4163" gradientUnits="userSpaceOnUse">
            <stop stop-color="#DB0000" stop-opacity="0.61"/>
            <stop offset="0.549387" stop-color="#FF922D"/>
            <stop offset="0.979167" stop-color="#FF1F00"/>
        </linearGradient>
        <linearGradient id="paint4_linear_852_5648" x1="26.6668" y1="-2.66671" x2="10.1334" y2="17.3333" gradientUnits="userSpaceOnUse">
            <stop offset="0.484456" stop-color="#FF2C2C"/>
            <stop offset="1" stop-color="#FFA800"/>
        </linearGradient>
    </defs>
</svg>
